<?xml version="1.0" standalone="no"?><!DOCTYPE svg PUBLIC "-//W3C//DTD SVG 1.1//EN" "http://www.w3.org/Graphics/SVG/1.1/DTD/svg11.dtd"><svg t="1495612861955" class="icon" style="" viewBox="0 0 1024 1024" version="1.1" xmlns="http://www.w3.org/2000/svg" p-id="2766" xmlns:xlink="http://www.w3.org/1999/xlink" width="200" height="200"><defs><style type="text/css"></style></defs><path d="M515.8 485.1c-66 0-266.6-53.2-266.6-53.2V314h527.2v119.5" fill="#F3F4F3" p-id="2767"></path><path d="M778.8 741.2H249.2c-4.2 0-7.6-3.4-7.6-7.6V314c0-4.2 3.4-7.6 7.6-7.6h529.6c4.2 0 7.6 3.4 7.6 7.6v419.6c0 4.2-3.4 7.6-7.6 7.6z m-522-15.2h514.4V321.6H256.8V726z" fill="#969696" p-id="2768"></path><path d="M515.8 492.7v-15.2c64.2 0 262.7-52.4 264.7-52.9l3.9 14.7c-8.3 2.1-202.4 53.4-268.6 53.4z" fill="#969696" p-id="2769"></path><path d="M515.8 492.7c-66.2 0-260.3-51.3-268.6-53.4-3.3-0.9-5.7-3.9-5.7-7.3V314c0-4.2 3.4-7.6 7.6-7.6h527.2c4.2 0 7.6 3.4 7.6 7.6v119.5h-15.2V321.6h-512V426c33 8.6 200.9 51.4 259 51.4v15.3zM612 659.8c-1.4 0-2.9-0.4-4.2-1.3-42.6-28.4-88.8-37.1-137.4-25.9-36.6 8.4-61 25.6-61.2 25.8-3.4 2.4-8.2 1.6-10.6-1.8-2.4-3.4-1.7-8.1 1.7-10.6 1.1-0.8 26.6-18.9 66.1-28.1 36.5-8.5 92.1-10.6 149.9 27.9 3.5 2.3 4.4 7 2.1 10.5-1.5 2.3-3.9 3.5-6.4 3.5zM616.4 597.9c-2 0-4-0.8-5.4-2.3l-40.2-41.2c-1.4-1.5-2.2-3.4-2.2-5.5 0-2 0.9-4 2.4-5.4l40.2-38c3.1-2.9 7.9-2.7 10.7 0.3 2.9 3 2.7 7.9-0.3 10.7L587 549.3l34.8 35.7c2.9 3 2.9 7.8-0.1 10.7-1.5 1.5-3.4 2.2-5.3 2.2zM390.6 597.9c-2 0-4-0.8-5.5-2.4-2.9-3-2.8-7.9 0.3-10.7l34.6-32.7-34.8-35.7c-2.9-3-2.9-7.8 0.1-10.7 3-2.9 7.8-2.9 10.7 0.1l40.2 41.2c1.4 1.5 2.2 3.4 2.2 5.5 0 2-0.9 4-2.4 5.4l-40.2 38c-1.4 1.4-3.3 2-5.2 2zM123.7 754.2H81.3c-4.8 0-8.7-3.9-8.7-8.7s3.9-8.7 8.7-8.7h42.3c4.8 0 8.7 3.9 8.7 8.7s-3.9 8.7-8.6 8.7zM166 754.2h-12c-4.8 0-8.7-3.9-8.7-8.7s3.9-8.7 8.7-8.7h12c4.8 0 8.7 3.9 8.7 8.7s-3.9 8.7-8.7 8.7z" fill="#969696" p-id="2770"></path><path d="M227.8 797.6h-42.3c-3.6 0-6.5-2.9-6.5-6.5s2.9-6.5 6.5-6.5h42.3c3.6 0 6.5 2.9 6.5 6.5 0.1 3.6-2.9 6.5-6.5 6.5zM892 797.6h-57.5c-3.6 0-6.5-2.9-6.5-6.5s2.9-6.5 6.5-6.5H892c3.6 0 6.5 2.9 6.5 6.5 0.1 3.6-2.9 6.5-6.5 6.5zM803 797.6H264.7c-3.6 0-6.5-2.9-6.5-6.5s2.9-6.5 6.5-6.5H803c3.6 0 6.5 2.9 6.5 6.5 0.1 3.6-2.9 6.5-6.5 6.5zM155.1 797.6h-11.9c-3.6 0-6.5-2.9-6.5-6.5s2.9-6.5 6.5-6.5h11.9c3.6 0 6.5 2.9 6.5 6.5s-2.9 6.5-6.5 6.5z" fill="#C1C0C0" p-id="2771"></path><path d="M908.3 754.2H866c-4.8 0-8.7-3.9-8.7-8.7s3.9-8.7 8.7-8.7h42.3c4.8 0 8.7 3.9 8.7 8.7s-3.9 8.7-8.7 8.7zM950.7 754.2h-11.9c-4.8 0-8.7-3.9-8.7-8.7s3.9-8.7 8.7-8.7h11.9c4.8 0 8.7 3.9 8.7 8.7s-4 8.7-8.7 8.7zM834.5 754.2H199.6c-4.8 0-8.7-3.9-8.7-8.7s3.9-8.7 8.7-8.7h634.9c4.8 0 8.7 3.9 8.7 8.7s-3.9 8.7-8.7 8.7zM878.1 644.3c-5.8 0-47.8-2.3-60.4-65.8-0.1-0.7 0.2-1.4 0.9-1.7 0.7-0.3 1.4-0.1 1.8 0.5 0.2 0.2 11.5 14.7 60.8 14.7 0.5 0 11.5 0.3 18.7 8.3 4.5 4.9 6.4 11.6 5.8 20 0 0.3-2.8 22.7-26.9 24h-0.7z m-56.5-61.8c14.1 60.7 56.5 58.8 56.9 58.7 21.6-1.2 24-20.4 24.1-21.3 0.6-7.4-1.1-13.4-5-17.6-6.3-7-16.4-7.3-16.5-7.3-36.7 0.1-53-7.7-59.5-12.5z" fill="#969696" p-id="2772"></path><path d="M924.1 636c-0.7 0-1.3-0.4-1.5-1.1-2.9-10.4-18.7-11-18.9-11-0.8 0-1.5-0.7-1.5-1.6 0-0.8 0.6-1.5 1.6-1.5 0.7 0 18.2 0.7 21.7 13.2 0.2 0.8-0.2 1.6-1.1 1.9-0.1 0.1-0.2 0.1-0.3 0.1zM156.9 695.4c-42.3 0-55.3-29.5-55.4-29.9-9.6-22.2 9.3-34.6 9.5-34.8 7.2-4.3 14.1-5.5 20.5-3.7 10.3 2.9 15.5 12.6 15.7 13.1 22.2 44.7 40.1 47.9 40.3 47.9 0.7 0.1 1.2 0.7 1.3 1.4 0 0.7-0.4 1.4-1.1 1.6-11.7 3.1-21.9 4.4-30.8 4.4z m-31.2-66.2c-4.2 0-8.5 1.4-13.1 4.1-0.6 0.4-16.8 11.2-8.3 31 0.7 1.7 17.4 39.3 78 24.9-7.1-3.7-21.4-14.8-37.8-47.7 0-0.1-4.8-9-13.9-11.5-1.6-0.6-3.2-0.8-4.9-0.8z" fill="#969696" p-id="2773"></path><path d="M110.1 634.8c-0.5 0-1.1-0.3-1.3-0.8-0.1-0.1-7.7-14-18.3-12-0.8 0.2-1.6-0.4-1.8-1.2-0.2-0.8 0.4-1.6 1.2-1.8 12.8-2.4 21.2 12.9 21.5 13.6 0.4 0.7 0.1 1.7-0.6 2.1-0.3 0.1-0.5 0.1-0.7 0.1zM806.7 211c-17.7 0-24.7-16-24.8-16.2-3-7.8-3.1-14.8-0.2-20.8 4.6-9.7 15.1-13.2 15.5-13.3 47.4-14.3 53.9-31.5 54-31.7 0.2-0.7 0.9-1.1 1.6-1 0.7 0.1 1.3 0.6 1.3 1.4 6.7 69-39 80.5-39.5 80.6-2.8 0.7-5.5 1-7.9 1z m44.8-76.7c-4.8 6.4-18.2 18.6-53.4 29.2-0.1 0-9.7 3.3-13.7 11.7-2.5 5.2-2.4 11.4 0.3 18.4 0.3 0.7 8.2 18.4 29.2 13.4 1.8-0.4 41.7-10.6 37.6-72.7z" fill="#969696" p-id="2774"></path><path d="M768.4 215.2c-0.8 0-1.5-0.7-1.5-1.5-0.2-13 16.3-18.7 17-18.9 0.8-0.3 1.7 0.2 1.9 1 0.3 0.8-0.2 1.7-1 1.9-0.2 0.1-15.1 5.3-14.9 16 0 0.7-0.6 1.4-1.5 1.5zM626.7 270.6c-0.6 0-1.1-0.5-1.1-1.1 0-0.6 0.5-1.1 1.1-1.1 5-0.1 10.1-0.4 15.1-0.8 0.6-0.1 1.1 0.4 1.2 1 0.1 0.6-0.4 1.1-1 1.2-5 0.4-10.2 0.7-15.3 0.8 0.1 0 0 0 0 0z m-15.2-0.2c-5.1-0.2-10.2-0.7-15.3-1.3-0.6-0.1-1-0.6-0.9-1.2 0.1-0.6 0.6-1 1.2-1 5 0.6 10.1 1 15.1 1.3 0.6 0 1.1 0.5 1 1.1 0 0.7-0.5 1.1-1.1 1.1z m45.5-2.5c-0.5 0-1-0.4-1.1-0.9-0.1-0.6 0.3-1.1 0.9-1.2 5-0.8 9.9-1.8 14.8-3 0.6-0.1 1.2 0.2 1.3 0.8 0.1 0.6-0.2 1.2-0.8 1.3-4.9 1.2-9.9 2.2-15 3h-0.1z m-75.6-1h-0.2c-5.1-1-10.1-2.1-14.9-3.4-0.6-0.2-0.9-0.8-0.8-1.3 0.2-0.6 0.8-0.9 1.3-0.8 4.7 1.3 9.6 2.4 14.7 3.4 0.6 0.1 1 0.7 0.9 1.3 0 0.4-0.5 0.8-1 0.8z m105.1-6.1c-0.5 0-0.9-0.3-1-0.8-0.2-0.6 0.1-1.2 0.7-1.4 4.8-1.5 9.6-3.2 14.2-5.1 0.6-0.2 1.2 0 1.4 0.6 0.2 0.6 0 1.2-0.6 1.4-4.7 1.9-9.5 3.6-14.4 5.1-0.1 0.2-0.2 0.2-0.3 0.2z m-134.2-2.5c-0.2 0-0.3 0-0.5-0.1-4.7-2.4-9.2-4.9-13.4-7.4-0.5-0.3-0.7-1-0.3-1.5 0.3-0.5 1-0.7 1.5-0.3 4.1 2.5 8.5 5 13.2 7.3 0.5 0.3 0.8 0.9 0.5 1.5-0.2 0.3-0.6 0.5-1 0.5z m-25.7-16.1c-0.2 0-0.5-0.1-0.7-0.2-4.2-3.4-8-6.9-11.2-10.5-0.4-0.4-0.4-1.1 0.1-1.5 0.4-0.4 1.1-0.4 1.5 0.1 3.2 3.5 6.9 7 11 10.2 0.5 0.4 0.5 1.1 0.2 1.5-0.2 0.3-0.6 0.4-0.9 0.4z m-11.1-15.8c-5-0.1-10.2-0.7-15.3-1.9-0.6-0.1-0.9-0.7-0.8-1.3 0.1-0.6 0.7-0.9 1.3-0.8 5 1.2 9.9 1.8 14.8 1.9 0.6 0 1.1 0.5 1.1 1.1 0 0.5-0.5 1-1.1 1z m15.1-1.5c-0.5 0-0.9-0.3-1.1-0.9-0.1-0.6 0.2-1.2 0.8-1.3 4.7-1.1 9.5-2.7 14.1-4.8 0.6-0.3 1.2 0 1.4 0.5 0.3 0.5 0 1.2-0.5 1.4-4.8 2.2-9.7 3.9-14.6 5 0 0.1-0.1 0.1-0.1 0.1z m-44.5-5.2c-0.1 0-0.3 0-0.4-0.1-4.5-2-9-4.4-13.6-7.2-0.5-0.3-0.7-1-0.3-1.5 0.3-0.5 1-0.7 1.5-0.3 4.4 2.8 8.9 5.1 13.3 7 0.5 0.2 0.8 0.9 0.6 1.4-0.3 0.4-0.7 0.7-1.1 0.7z m20.5-0.1c-0.4 0-0.7-0.2-0.9-0.6-3.5-6.2-4.8-11.3-5.4-14.5-0.1-0.6 0.3-1.2 0.9-1.3 0.6-0.1 1.2 0.3 1.3 0.9 0.5 3 1.8 7.9 5.2 13.8 0.3 0.5 0.1 1.2-0.4 1.5-0.3 0.2-0.5 0.2-0.7 0.2z m50.6-8.6c-0.3 0-0.6-0.1-0.8-0.4-0.4-0.4-0.4-1.1 0.1-1.5 3.9-3.5 7.3-7.2 10.1-11 0.4-0.5 1-0.6 1.5-0.2 0.5 0.4 0.6 1 0.2 1.5-2.9 4-6.4 7.8-10.4 11.3-0.2 0.3-0.4 0.3-0.7 0.3z m-96.9-7.2c-0.2 0-0.5-0.1-0.7-0.2-3.8-3-7.7-6.4-11.5-10-0.4-0.4-0.5-1.1 0-1.5 0.4-0.4 1.1-0.5 1.5 0 3.8 3.6 7.6 6.9 11.4 9.9 0.5 0.4 0.6 1.1 0.2 1.5-0.3 0.1-0.6 0.3-0.9 0.3z m40-13.5h-0.1c-0.6-0.1-1-0.6-1-1.2 0.5-4.8 1.8-9.8 4-14.9 0.2-0.6 0.9-0.8 1.4-0.6 0.6 0.2 0.8 0.9 0.6 1.4-2.1 4.9-3.4 9.7-3.9 14.3 0.1 0.6-0.4 1-1 1z m74.6-3.7c-0.1 0-0.3 0-0.4-0.1-0.6-0.2-0.8-0.8-0.6-1.4 1.8-4.7 2.8-9.6 2.9-14.5 0-0.6 0.5-1.1 1.1-1.1 0.6 0 1.1 0.5 1.1 1.1-0.1 5.1-1.1 10.2-3 15.2-0.3 0.6-0.7 0.8-1.1 0.8zM438.1 183c-0.3 0-0.6-0.1-0.8-0.4-3.4-3.7-6.7-7.6-9.9-11.6-0.4-0.5-0.3-1.2 0.2-1.5 0.5-0.4 1.2-0.3 1.5 0.2 3.2 4 6.5 7.9 9.8 11.5 0.4 0.4 0.4 1.1-0.1 1.5-0.1 0.2-0.4 0.3-0.7 0.3z m73.7-20.5c-0.2 0-0.4-0.1-0.6-0.2-0.5-0.3-0.6-1-0.3-1.5 3.9-5.5 7.2-8.8 7.4-9 1.1-0.9 2.1-1.7 3-2.5 0.5-0.4 1.2-0.3 1.5 0.2 0.4 0.5 0.3 1.2-0.2 1.5-1 0.7-1.9 1.5-2.9 2.4 0 0-3.3 3.3-7.1 8.6-0.1 0.4-0.4 0.5-0.8 0.5z m-92.7-3.3c-0.3 0-0.7-0.2-0.9-0.5-5.4-7.6-8.4-12.8-8.4-12.8-0.3-0.5-0.1-1.2 0.4-1.5 0.5-0.3 1.2-0.1 1.5 0.4 0 0.1 3 5.2 8.3 12.7 0.3 0.5 0.2 1.2-0.3 1.5-0.2 0.2-0.4 0.2-0.6 0.2z m156-2.1c-0.3 0-0.7-0.2-0.9-0.4-1.7-2.3-5.3-6.7-10.7-10.2-0.5-0.3-0.6-1-0.3-1.5s1-0.6 1.5-0.3c5.6 3.7 9.5 8.3 11.2 10.7 0.4 0.5 0.3 1.2-0.2 1.5-0.2 0.2-0.4 0.2-0.6 0.2z m-40-13.4c-0.4 0-0.8-0.3-1-0.7-0.2-0.6 0.1-1.2 0.6-1.4 5.2-2 10.4-2.7 15.4-2.2 0.6 0.1 1 0.6 1 1.2-0.1 0.6-0.6 1-1.2 1-4.7-0.5-9.5 0.2-14.4 2.1h-0.4z" fill="#969696" p-id="2775"></path></svg>